<?xml version="1.0" standalone="no"?>
<!DOCTYPE svg PUBLIC "-//W3C//DTD SVG 20010904//EN"
 "http://www.w3.org/TR/2001/REC-SVG-20010904/DTD/svg10.dtd">
<svg version="1.0" xmlns="http://www.w3.org/2000/svg"
 width="16.000000pt" height="16.000000pt" viewBox="0 0 16.000000 16.000000"
 preserveAspectRatio="xMidYMid meet">
<metadata>
Created by potrace 1.11, written by Peter Selinger 2001-2013
</metadata>
<g transform="translate(0.000000,16.000000) scale(0.013445,-0.013445)"
fill="#000000" stroke="none">
<path d="M368 1173 c-16 -20 -13 -94 6 -131 32 -63 101 -101 186 -103 84 -3
83 -4 77 44 -15 120 -87 187 -214 200 -30 3 -47 0 -55 -10z"/>
<path d="M313 915 c-228 -69 -334 -333 -226 -561 27 -58 116 -155 185 -201 91
-63 284 -153 326 -153 31 0 199 77 274 126 212 137 307 316 264 497 -56 233
-268 356 -480 277 l-56 -21 -59 21 c-73 25 -172 32 -228 15z"/>
</g>
</svg>
